<?xml version="1.0" standalone="yes"?>

<svg version="1.1" viewBox="0.0 0.0 960.0 720.0" fill="none" stroke="none" stroke-linecap="square" stroke-miterlimit="10" xmlns="http://www.w3.org/2000/svg" xmlns:xlink="http://www.w3.org/1999/xlink"><clipPath id="p.0"><path d="m0 0l960.0 0l0 720.0l-960.0 0l0 -720.0z" clip-rule="nonzero"></path></clipPath><g clip-path="url(#p.0)"><path fill="#000000" fill-opacity="0.0" d="m0 0l960.0 0l0 720.0l-960.0 0z" fill-rule="evenodd"></path><path fill="#000000" fill-opacity="0.0" d="m432.5013 386.0l66.519684 0" fill-rule="evenodd"></path><path stroke="#54e3d9" stroke-width="8.0" stroke-linejoin="round" stroke-linecap="butt" d="m432.5013 386.0l66.519684 0" fill-rule="evenodd"></path><path fill="#000000" fill-opacity="0.0" d="m498.3708 387.0l-46.362213 163.21259" fill-rule="evenodd"></path><path stroke="#54e3d9" stroke-width="8.0" stroke-linejoin="round" stroke-linecap="butt" d="m498.3708 387.0l-46.362213 163.21259" fill-rule="evenodd"></path><path fill="#000000" fill-opacity="0.0" d="m455.65594 547.69464l182.33069 0" fill-rule="evenodd"></path><path stroke="#54e3d9" stroke-width="8.0" stroke-linejoin="round" stroke-linecap="butt" d="m455.65594 547.69464l182.33069 0" fill-rule="evenodd"></path><path fill="#000000" fill-opacity="0.0" d="m448.1784 550.1539l30.015747 -0.03149414" fill-rule="evenodd"></path><path stroke="#54e3d9" stroke-width="3.0" stroke-linejoin="round" stroke-linecap="butt" d="m448.1784 550.1539l30.015747 -0.03149414" fill-rule="evenodd"></path><path fill="#000000" fill-opacity="0.0" d="m429.11792 379.4229l66.519684 0" fill-rule="evenodd"></path><path stroke="#ea9999" stroke-width="8.0" stroke-linejoin="round" stroke-linecap="butt" d="m429.11792 379.4229l66.519684 0" fill-rule="evenodd"></path><path fill="#000000" fill-opacity="0.0" d="m437.36877 277.08893l0 226.92914" fill-rule="evenodd"></path><path stroke="#ea9999" stroke-width="4.0" stroke-linejoin="round" stroke-linecap="butt" d="m437.36877 277.08893l0 226.92914" fill-rule="evenodd"></path><path fill="#000000" fill-opacity="0.0" d="m432.0 270.0l134.89764 233.63779" fill-rule="evenodd"></path><path stroke="#ea9999" stroke-width="8.0" stroke-linejoin="round" stroke-linecap="butt" d="m432.0 270.0l134.89764 233.63779" fill-rule="evenodd"></path><path fill="#000000" fill-opacity="0.0" d="m430.62878 501.5286l-92.8504 -117.03937" fill-rule="evenodd"></path><path stroke="#a4c2f4" stroke-width="8.0" stroke-linejoin="round" stroke-linecap="butt" d="m430.62878 501.5286l-92.8504 -117.03937" fill-rule="evenodd"></path><path fill="#000000" fill-opacity="0.0" d="m431.5223 215.0l0 289.07086" fill-rule="evenodd"></path><path stroke="#a4c2f4" stroke-width="8.0" stroke-linejoin="round" stroke-linecap="butt" d="m431.5223 215.0l0 289.07086" fill-rule="evenodd"></path></g></svg>

